<svg width="25" height="24" viewBox="0 0 25 24" fill="none" xmlns="http://www.w3.org/2000/svg">
<g clip-path="url(#clip0_37_11495)">
<mask id="mask0_37_11495" style="mask-type:luminance" maskUnits="userSpaceOnUse" x="0" y="0" width="25" height="24">
<path d="M24.5 0H0.5V24H24.5V0Z" fill="white"/>
</mask>
<g mask="url(#mask0_37_11495)">
<path opacity="0.4" d="M16.69 2H8.31C4.67 2 2.5 4.17 2.5 7.81V16.18C2.5 19.83 4.67 22 8.31 22H16.68C20.32 22 22.49 19.83 22.49 16.19V7.81C22.5 4.17 20.33 2 16.69 2Z" fill="#024757"/>
<path d="M18.5 11.25H13.25V6C13.25 5.59 12.91 5.25 12.5 5.25C12.09 5.25 11.75 5.59 11.75 6V11.25H6.5C6.09 11.25 5.75 11.59 5.75 12C5.75 12.41 6.09 12.75 6.5 12.75H11.75V18C11.75 18.41 12.09 18.75 12.5 18.75C12.91 18.75 13.25 18.41 13.25 18V12.75H18.5C18.91 12.75 19.25 12.41 19.25 12C19.25 11.59 18.91 11.25 18.5 11.25Z" fill="#024757"/>
</g>
</g>
<defs>
<clipPath id="clip0_37_11495">
<rect width="24" height="24" fill="white" transform="translate(0.5)"/>
</clipPath>
</defs>
</svg>
