<svg width="21" height="21" viewBox="0 0 21 21" fill="none" xmlns="http://www.w3.org/2000/svg">
<g clip-path="url(#clip0_119_2526)">
<mask id="mask0_119_2526" style="mask-type:luminance" maskUnits="userSpaceOnUse" x="0" y="0" width="21" height="21">
<path d="M20.5 0.409828H0.5V20.4098H20.5V0.409828Z" fill="white"/>
</mask>
<g mask="url(#mask0_119_2526)">
<path d="M14.4585 3.3765V2.0765C14.4585 1.73483 14.1751 1.4515 13.8335 1.4515C13.4918 1.4515 13.2085 1.73483 13.2085 2.0765V3.3265H7.79184V2.0765C7.79184 1.73483 7.5085 1.4515 7.16684 1.4515C6.82517 1.4515 6.54184 1.73483 6.54184 2.0765V3.3765C4.29184 3.58483 3.20017 4.9265 3.0335 6.91816C3.01684 7.15983 3.21684 7.35983 3.45017 7.35983H17.5501C17.7918 7.35983 17.9918 7.1515 17.9668 6.91816C17.8001 4.9265 16.7085 3.58483 14.4585 3.3765Z" fill="white"/>
<path opacity="0.4" d="M17.1667 8.6097C17.625 8.6097 18 8.98466 18 9.443V14.5763C18 17.0763 16.75 18.743 13.8333 18.743H7.16667C4.25 18.743 3 17.0763 3 14.5763V9.443C3 8.98466 3.375 8.6097 3.83333 8.6097H17.1667Z" fill="white"/>
<path d="M7.58333 12.9105C7.36667 12.9105 7.15 12.8188 6.99167 12.6688C6.84167 12.5105 6.75 12.2938 6.75 12.0772C6.75 11.8605 6.84167 11.6439 6.99167 11.4856C7.225 11.2522 7.59167 11.1772 7.9 11.3105C8.00833 11.3522 8.1 11.4106 8.175 11.4856C8.325 11.6439 8.41667 11.8605 8.41667 12.0772C8.41667 12.2938 8.325 12.5105 8.175 12.6688C8.01667 12.8188 7.8 12.9105 7.58333 12.9105Z" fill="white"/>
<path d="M10.5 12.9105C10.2834 12.9105 10.0667 12.8188 9.90835 12.6688C9.75835 12.5105 9.66669 12.2938 9.66669 12.0772C9.66669 11.8605 9.75835 11.6439 9.90835 11.4856C9.98335 11.4106 10.075 11.3522 10.1834 11.3105C10.4917 11.1772 10.8584 11.2522 11.0917 11.4856C11.2417 11.6439 11.3334 11.8605 11.3334 12.0772C11.3334 12.2938 11.2417 12.5105 11.0917 12.6688C11.05 12.7022 11.0084 12.7355 10.9667 12.7688C10.9167 12.8022 10.8667 12.8272 10.8167 12.8439C10.7667 12.8689 10.7167 12.8856 10.6667 12.8939C10.6084 12.9022 10.5584 12.9105 10.5 12.9105Z" fill="white"/>
<path d="M13.4166 12.9098C13.2 12.9098 12.9833 12.8182 12.825 12.6682C12.675 12.5098 12.5833 12.2932 12.5833 12.0765C12.5833 11.8598 12.675 11.6432 12.825 11.4848C12.9083 11.4098 12.9916 11.3515 13.1 11.3098C13.25 11.2432 13.4166 11.2265 13.5833 11.2598C13.6333 11.2682 13.6833 11.2848 13.7333 11.3098C13.7833 11.3265 13.8333 11.3515 13.8833 11.3848C13.925 11.4182 13.9666 11.4515 14.0083 11.4848C14.1583 11.6432 14.25 11.8598 14.25 12.0765C14.25 12.2932 14.1583 12.5098 14.0083 12.6682C13.9666 12.7015 13.925 12.7348 13.8833 12.7682C13.8333 12.8015 13.7833 12.8265 13.7333 12.8432C13.6833 12.8682 13.6333 12.8848 13.5833 12.8932C13.525 12.9015 13.4666 12.9098 13.4166 12.9098Z" fill="white"/>
<path d="M7.58333 15.8265C7.475 15.8265 7.36667 15.8015 7.26667 15.7598C7.15833 15.7182 7.075 15.6598 6.99167 15.5848C6.84167 15.4265 6.75 15.2098 6.75 14.9932C6.75 14.7765 6.84167 14.5598 6.99167 14.4015C7.075 14.3265 7.15833 14.2682 7.26667 14.2265C7.41667 14.1598 7.58333 14.1432 7.75 14.1765C7.8 14.1848 7.85 14.2015 7.9 14.2265C7.95 14.2432 8 14.2682 8.05 14.3015C8.09167 14.3348 8.13333 14.3682 8.175 14.4015C8.325 14.5598 8.41667 14.7765 8.41667 14.9932C8.41667 15.2098 8.325 15.4265 8.175 15.5848C8.13333 15.6182 8.09167 15.6598 8.05 15.6848C8 15.7182 7.95 15.7432 7.9 15.7598C7.85 15.7848 7.8 15.8015 7.75 15.8098C7.69167 15.8182 7.64167 15.8265 7.58333 15.8265Z" fill="white"/>
<path d="M10.5 15.8258C10.2834 15.8258 10.0667 15.7342 9.90835 15.5842C9.75835 15.4258 9.66669 15.2092 9.66669 14.9925C9.66669 14.7758 9.75835 14.5592 9.90835 14.4008C10.2167 14.0925 10.7834 14.0925 11.0917 14.4008C11.2417 14.5592 11.3334 14.7758 11.3334 14.9925C11.3334 15.2092 11.2417 15.4258 11.0917 15.5842C10.9334 15.7342 10.7167 15.8258 10.5 15.8258Z" fill="white"/>
<path d="M13.4166 15.8258C13.2 15.8258 12.9833 15.7342 12.825 15.5842C12.675 15.4258 12.5833 15.2092 12.5833 14.9925C12.5833 14.7758 12.675 14.5592 12.825 14.4008C13.1333 14.0925 13.7 14.0925 14.0083 14.4008C14.1583 14.5592 14.25 14.7758 14.25 14.9925C14.25 15.2092 14.1583 15.4258 14.0083 15.5842C13.85 15.7342 13.6333 15.8258 13.4166 15.8258Z" fill="white"/>
</g>
</g>
<defs>
<clipPath id="clip0_119_2526">
<rect width="20" height="20" fill="white" transform="translate(0.5 0.409828)"/>
</clipPath>
</defs>
</svg>
