<svg width="264" height="70" viewBox="0 0 264 70" fill="none" xmlns="http://www.w3.org/2000/svg">
<rect width="69.8182" height="69.8182" rx="4.98701" fill="#024757"/>
<path d="M37.2147 62.3144C36.119 62.7681 34.8876 62.7682 33.7919 62.3144L24.6083 58.5107H46.3983L37.2147 62.3144ZM14.8436 53.0478C15.2975 54.1436 16.1688 55.0147 17.2645 55.4687L24.6083 58.5107H16.6591C14.1894 58.5105 12.1868 56.5086 12.1864 54.039V46.6318L14.8436 53.0478ZM59.205 54.039C59.2046 56.5087 57.2021 58.5107 54.7323 58.5107H46.3983L53.743 55.4687C54.8387 55.0148 55.709 54.1434 56.163 53.0478L59.205 45.7031V54.039ZM12.1864 46.6318L7.99792 36.5204C7.54408 35.4248 7.54426 34.1933 7.99792 33.0976L12.1864 22.9843V46.6318ZM63.0087 33.0966C63.4626 34.1925 63.4626 35.4246 63.0087 36.5204L59.205 45.7031V23.913L63.0087 33.0966ZM42.4081 34.8056C42.4719 35.1855 42.5077 35.5755 42.5077 35.9736C42.5077 39.8425 39.3708 42.9794 35.5018 42.9794C31.6331 42.9791 28.4969 39.8423 28.4969 35.9736C28.497 35.5756 28.5318 35.1855 28.5956 34.8056C29.1515 38.1185 32.031 40.6432 35.5018 40.6435C38.9728 40.6435 41.8521 38.1186 42.4081 34.8056ZM35.5018 26.6327C39.3706 26.6327 42.5074 29.7689 42.5077 33.6376C42.5077 34.0355 42.4718 34.4258 42.4081 34.8056C41.8517 31.4931 38.9725 28.9687 35.5018 28.9687C32.0313 28.9689 29.1519 31.4932 28.5956 34.8056C28.5319 34.4258 28.4969 34.0355 28.4969 33.6376C28.4972 29.7691 31.6333 26.633 35.5018 26.6327ZM54.7323 11.4921C57.2023 11.4921 59.2049 13.4948 59.205 15.9648V23.913L56.163 16.5693C55.7091 15.4736 54.8386 14.6033 53.743 14.1493L47.328 11.4921H54.7323ZM17.2645 14.1493C16.1689 14.6033 15.2975 15.4736 14.8436 16.5693L12.1864 22.9843V15.9648C12.1865 13.4949 14.1892 11.4923 16.6591 11.4921H23.6786L17.2645 14.1493ZM33.7919 7.30267C34.8876 6.84886 36.119 6.84893 37.2147 7.30267L47.328 11.4921H23.6786L33.7919 7.30267Z" fill="#FFFA89"/>
<path d="M82.441 49.4091V20.4046H88.0663V49.4091H82.441ZM98.1788 37.6796V49.4091H93.0322V28.3439H97.5404L98.1389 31.7351C99.1363 29.7004 101.331 27.945 104.921 27.945C109.31 27.945 111.424 30.4185 112.302 32.4133C113.579 29.5807 116.451 27.945 119.962 27.945C125.308 27.945 128.699 31.6154 128.699 37.0413V49.4091H123.593V37.161C123.593 33.7299 121.757 31.4159 118.406 31.4159C115.015 31.4159 113.419 34.0491 113.419 37.2807V49.4091H108.312V37.5998C108.312 34.0491 106.796 31.4159 103.285 31.4159C99.8145 31.4159 98.1788 34.3683 98.1788 37.6796ZM144.733 49.808C141.143 49.808 138.709 48.2122 137.512 46.2573V57.9468H132.366V28.3439H136.874L137.472 31.775C138.55 29.9398 140.704 27.945 144.733 27.945C151.037 27.945 154.827 32.7724 154.827 38.9164C154.827 45.1801 150.957 49.808 144.733 49.808ZM143.457 30.9771C139.387 30.9771 137.512 34.7273 137.512 38.7967C137.512 42.9858 139.308 46.5765 143.537 46.5765C147.646 46.5765 149.521 42.906 149.521 38.7967C149.521 34.7672 147.646 30.9771 143.457 30.9771ZM170.971 28.2243V32.2538C170.332 32.0942 169.495 31.9745 168.737 31.9745C167.021 31.9745 165.345 32.3735 164.109 33.4905C163.031 34.5677 162.313 36.2035 162.313 38.677V49.4091H157.167V28.3439H161.675L162.273 32.3735C163.271 29.0621 165.944 27.945 168.617 27.945C169.534 27.945 170.372 28.0647 170.971 28.2243ZM193.882 38.8765C193.882 45.5791 189.094 49.808 182.551 49.808C176.008 49.808 171.221 45.619 171.221 38.8765C171.221 32.2538 176.008 27.945 182.551 27.945C189.054 27.945 193.882 32.2538 193.882 38.8765ZM176.527 38.8765C176.527 43.305 178.203 47.135 182.551 47.135C186.86 47.135 188.576 43.305 188.576 38.8765C188.576 34.5278 186.86 30.618 182.551 30.618C178.282 30.618 176.527 34.5677 176.527 38.8765ZM204.827 47.1749C207.101 47.1749 209.016 46.2573 209.016 43.9034C209.016 41.4698 205.824 40.991 203.311 40.4724C199.122 39.5547 195.571 38.1584 195.571 34.2486C195.571 29.8999 200.079 27.9051 204.508 27.9051C209.455 27.9051 213.883 29.7403 213.883 34.2885V34.6874H208.856C208.856 32.0144 207.141 30.5382 204.428 30.5382C202.433 30.5382 200.598 31.5755 200.598 33.5703C200.598 35.6449 202.673 36.2833 205.784 36.9615C209.056 37.6796 214.163 38.4776 214.163 43.2252C214.163 47.9728 209.535 49.808 204.787 49.808C199.68 49.808 195.252 47.9329 195.252 42.9459V42.4273H200.398C200.398 45.3397 201.875 47.1749 204.827 47.1749ZM236.629 42.547C236.629 47.6537 231.842 49.808 226.735 49.808C219.953 49.808 215.524 45.6987 215.524 38.9164C215.524 32.2937 219.793 27.945 226.416 27.945C232.839 27.945 236.908 31.7351 236.908 38.1584C236.908 38.7568 236.868 39.3154 236.829 39.9936H220.83C221.11 43.7837 222.945 47.135 226.735 47.135C229.687 47.135 231.443 45.4993 231.443 42.547H236.629ZM226.416 30.618C222.785 30.618 221.189 33.7299 220.87 37.3605H231.842C231.842 33.4905 230.286 30.618 226.416 30.618ZM239.466 49.4091V18.8088H244.613V49.4091H239.466ZM260.968 30.9771H254.545V49.4091H249.398V30.9771H246.486V28.3439H249.518V25.8305C249.518 20.7238 252.949 18.4098 258.175 18.4098C259.811 18.4098 261.128 18.6492 262.205 18.8886V21.5217C261.367 21.4419 260.649 21.402 259.771 21.402C256.26 21.402 254.545 22.5989 254.545 26.1098V28.3439H260.968V30.9771Z" fill="#121212"/>
</svg>
