<svg width="16" height="16" viewBox="0 0 16 16" fill="none" xmlns="http://www.w3.org/2000/svg">
<g clip-path="url(#clip0_37_2413)">
<mask id="mask0_37_2413" style="mask-type:luminance" maskUnits="userSpaceOnUse" x="0" y="0" width="16" height="16">
<path d="M16 0H0V16H16V0Z" fill="white"/>
</mask>
<g mask="url(#mask0_37_2413)">
<path d="M11.1668 2.37325V1.33325C11.1668 1.05992 10.9401 0.833252 10.6668 0.833252C10.3934 0.833252 10.1668 1.05992 10.1668 1.33325V2.33325H5.83345V1.33325C5.83345 1.05992 5.60678 0.833252 5.33345 0.833252C5.06011 0.833252 4.83345 1.05992 4.83345 1.33325V2.37325C3.03345 2.53992 2.16011 3.61325 2.02678 5.20658C2.01345 5.39992 2.17345 5.55992 2.36011 5.55992H13.6401C13.8334 5.55992 13.9934 5.39325 13.9734 5.20658C13.8401 3.61325 12.9668 2.53992 11.1668 2.37325Z" fill="#024757"/>
<path opacity="0.4" d="M13.3333 6.55981C13.7 6.55981 14 6.85979 14 7.22645V11.3331C14 13.3331 13 14.6665 10.6667 14.6665H5.33333C3 14.6665 2 13.3331 2 11.3331V7.22645C2 6.85979 2.3 6.55981 2.66667 6.55981H13.3333Z" fill="#024757"/>
<path d="M5.66667 10.0005C5.49333 10.0005 5.32 9.92721 5.19333 9.80721C5.07333 9.68054 5 9.50721 5 9.33388C5 9.16054 5.07333 8.98728 5.19333 8.86061C5.38 8.67394 5.67333 8.61388 5.92 8.72054C6.00667 8.75388 6.08 8.80061 6.14 8.86061C6.26 8.98728 6.33333 9.16054 6.33333 9.33388C6.33333 9.50721 6.26 9.68054 6.14 9.80721C6.01333 9.92721 5.84 10.0005 5.66667 10.0005Z" fill="#024757"/>
<path d="M8.00004 10.0005C7.82671 10.0005 7.65337 9.92721 7.52671 9.80721C7.40671 9.68054 7.33337 9.50721 7.33337 9.33388C7.33337 9.16054 7.40671 8.98728 7.52671 8.86061C7.58671 8.80061 7.66004 8.75388 7.74671 8.72054C7.99337 8.61388 8.28671 8.67394 8.47337 8.86061C8.59337 8.98728 8.66671 9.16054 8.66671 9.33388C8.66671 9.50721 8.59337 9.68054 8.47337 9.80721C8.44004 9.83388 8.40671 9.86054 8.37337 9.88721C8.33337 9.91388 8.29337 9.93394 8.25337 9.94728C8.21337 9.96728 8.17337 9.98061 8.13337 9.98728C8.08671 9.99394 8.04671 10.0005 8.00004 10.0005Z" fill="#024757"/>
<path d="M10.3333 9.99984C10.16 9.99984 9.98663 9.9265 9.85996 9.8065C9.73996 9.67984 9.66663 9.5065 9.66663 9.33317C9.66663 9.15984 9.73996 8.9865 9.85996 8.85984C9.92663 8.79984 9.99329 8.75317 10.08 8.71984C10.2 8.6665 10.3333 8.65317 10.4666 8.67984C10.5066 8.6865 10.5466 8.69984 10.5866 8.71984C10.6266 8.73317 10.6666 8.75317 10.7066 8.77984C10.74 8.8065 10.7733 8.83317 10.8066 8.85984C10.9266 8.9865 11 9.15984 11 9.33317C11 9.5065 10.9266 9.67984 10.8066 9.8065C10.7733 9.83317 10.74 9.85984 10.7066 9.8865C10.6666 9.91317 10.6266 9.93317 10.5866 9.9465C10.5466 9.9665 10.5066 9.97984 10.4666 9.9865C10.42 9.99317 10.3733 9.99984 10.3333 9.99984Z" fill="#024757"/>
<path d="M5.66667 12.3333C5.58 12.3333 5.49333 12.3133 5.41333 12.28C5.32667 12.2467 5.26 12.2 5.19333 12.14C5.07333 12.0133 5 11.84 5 11.6667C5 11.4933 5.07333 11.32 5.19333 11.1933C5.26 11.1333 5.32667 11.0867 5.41333 11.0533C5.53333 11 5.66667 10.9867 5.8 11.0133C5.84 11.02 5.88 11.0333 5.92 11.0533C5.96 11.0667 6 11.0867 6.04 11.1133C6.07333 11.14 6.10667 11.1667 6.14 11.1933C6.26 11.32 6.33333 11.4933 6.33333 11.6667C6.33333 11.84 6.26 12.0133 6.14 12.14C6.10667 12.1667 6.07333 12.2 6.04 12.22C6 12.2467 5.96 12.2667 5.92 12.28C5.88 12.3 5.84 12.3133 5.8 12.32C5.75333 12.3267 5.71333 12.3333 5.66667 12.3333Z" fill="#024757"/>
<path d="M8.00004 12.3328C7.82671 12.3328 7.65337 12.2595 7.52671 12.1395C7.40671 12.0128 7.33337 11.8395 7.33337 11.6661C7.33337 11.4928 7.40671 11.3195 7.52671 11.1928C7.77337 10.9461 8.22671 10.9461 8.47337 11.1928C8.59337 11.3195 8.66671 11.4928 8.66671 11.6661C8.66671 11.8395 8.59337 12.0128 8.47337 12.1395C8.34671 12.2595 8.17337 12.3328 8.00004 12.3328Z" fill="#024757"/>
<path d="M10.3333 12.3328C10.16 12.3328 9.98663 12.2595 9.85996 12.1395C9.73996 12.0128 9.66663 11.8395 9.66663 11.6661C9.66663 11.4928 9.73996 11.3195 9.85996 11.1928C10.1066 10.9461 10.56 10.9461 10.8066 11.1928C10.9266 11.3195 11 11.4928 11 11.6661C11 11.8395 10.9266 12.0128 10.8066 12.1395C10.68 12.2595 10.5066 12.3328 10.3333 12.3328Z" fill="#024757"/>
</g>
</g>
<defs>
<clipPath id="clip0_37_2413">
<rect width="16" height="16" fill="white"/>
</clipPath>
</defs>
</svg>
