<svg width="21" height="21" viewBox="0 0 21 21" fill="none" xmlns="http://www.w3.org/2000/svg">
<g clip-path="url(#clip0_119_2543)">
<mask id="mask0_119_2543" style="mask-type:luminance" maskUnits="userSpaceOnUse" x="0" y="0" width="21" height="21">
<path d="M20.5 0.409828H0.5V20.4098H20.5V0.409828Z" fill="white"/>
</mask>
<g mask="url(#mask0_119_2543)">
<path opacity="0.4" d="M2.16669 11.2182V6.23483C2.16669 3.93483 4.03335 2.0765 6.33335 2.0765H14.6667C16.9667 2.0765 18.8334 3.93483 18.8334 6.23483V12.0515C18.8334 14.3432 16.9667 16.2015 14.6667 16.2015H13.4167C13.1584 16.2015 12.9084 16.3265 12.75 16.5348L11.5 18.1932C10.95 18.9265 10.05 18.9265 9.50002 18.1932L8.25002 16.5348C8.11669 16.3515 7.81669 16.2015 7.58335 16.2015H6.33335C4.03335 16.2015 2.16669 14.3432 2.16669 12.0515V11.2182Z" fill="white"/>
<path d="M10.5 10.4098C10.0334 10.4098 9.66669 10.0348 9.66669 9.5765C9.66669 9.11816 10.0417 8.74316 10.5 8.74316C10.9584 8.74316 11.3334 9.11816 11.3334 9.5765C11.3334 10.0348 10.9667 10.4098 10.5 10.4098Z" fill="white"/>
<path d="M13.8333 10.4098C13.3667 10.4098 13 10.0348 13 9.5765C13 9.11816 13.375 8.74316 13.8333 8.74316C14.2917 8.74316 14.6667 9.11816 14.6667 9.5765C14.6667 10.0348 14.3 10.4098 13.8333 10.4098Z" fill="white"/>
<path d="M7.16671 10.4098C6.70004 10.4098 6.33337 10.0348 6.33337 9.5765C6.33337 9.11816 6.70837 8.74316 7.16671 8.74316C7.62504 8.74316 8.00004 9.11816 8.00004 9.5765C8.00004 10.0348 7.63337 10.4098 7.16671 10.4098Z" fill="white"/>
</g>
</g>
<defs>
<clipPath id="clip0_119_2543">
<rect width="20" height="20" fill="white" transform="translate(0.5 0.409828)"/>
</clipPath>
</defs>
</svg>
