<svg width="16" height="16" viewBox="0 0 16 16" fill="none" xmlns="http://www.w3.org/2000/svg">
<g clip-path="url(#clip0_52_6827)">
<mask id="mask0_52_6827" style="mask-type:luminance" maskUnits="userSpaceOnUse" x="0" y="0" width="16" height="16">
<path d="M16 0H0V16H16V0Z" fill="white"/>
</mask>
<g mask="url(#mask0_52_6827)">
<path opacity="0.4" d="M8.00007 14.6668C11.1923 14.6668 13.7801 12.079 13.7801 8.88681C13.7801 5.69457 11.1923 3.10678 8.00007 3.10678C4.80785 3.10678 2.22005 5.69457 2.22005 8.88681C2.22005 12.079 4.80785 14.6668 8.00007 14.6668Z" fill="#024757"/>
<path d="M8 9.16668C7.72667 9.16668 7.5 8.94001 7.5 8.66668V5.33334C7.5 5.06001 7.72667 4.83334 8 4.83334C8.27333 4.83334 8.5 5.06001 8.5 5.33334V8.66668C8.5 8.94001 8.27333 9.16668 8 9.16668Z" fill="#024757"/>
<path d="M9.92674 2.30001H6.07343C5.80676 2.30001 5.59343 2.08668 5.59343 1.82001C5.59343 1.55334 5.80676 1.33334 6.07343 1.33334H9.92674C10.1934 1.33334 10.4067 1.54668 10.4067 1.81334C10.4067 2.08001 10.1934 2.30001 9.92674 2.30001Z" fill="#024757"/>
</g>
</g>
<defs>
<clipPath id="clip0_52_6827">
<rect width="16" height="16" fill="white"/>
</clipPath>
</defs>
</svg>
