<svg width="19" height="19" viewBox="0 0 19 19" fill="none" xmlns="http://www.w3.org/2000/svg">
<g clip-path="url(#clip0_119_2503)">
<mask id="mask0_119_2503" style="mask-type:luminance" maskUnits="userSpaceOnUse" x="0" y="0" width="19" height="19">
<path d="M18.5 0.909828H0.5V18.9098H18.5V0.909828Z" fill="white"/>
</mask>
<g mask="url(#mask0_119_2503)">
<path opacity="0.4" d="M16.1225 6.91734L11.21 2.98734C10.25 2.22234 8.75 2.21484 7.79747 2.97984L2.88497 6.91734C2.17997 7.47984 1.75247 8.60483 1.90247 9.48983L2.84747 15.1448C3.06497 16.4123 4.24247 17.4098 5.52497 17.4098H13.475C14.7425 17.4098 15.9425 16.3898 16.16 15.1373L17.105 9.48233C17.24 8.60483 16.8125 7.47984 16.1225 6.91734Z" fill="#024757"/>
<path d="M9.5 14.9723C9.1925 14.9723 8.9375 14.7173 8.9375 14.4098V12.1598C8.9375 11.8523 9.1925 11.5973 9.5 11.5973C9.8075 11.5973 10.0625 11.8523 10.0625 12.1598V14.4098C10.0625 14.7173 9.8075 14.9723 9.5 14.9723Z" fill="#024757"/>
</g>
</g>
<defs>
<clipPath id="clip0_119_2503">
<rect width="18" height="18" fill="white" transform="translate(0.5 0.909828)"/>
</clipPath>
</defs>
</svg>
