<svg width="264" height="70" viewBox="0 0 264 70" fill="none" xmlns="http://www.w3.org/2000/svg">
<rect width="69.8182" height="69.8182" rx="4.98701" fill="#024757"/>
<path d="M37.2151 62.3145C36.1194 62.7682 34.8879 62.7682 33.7922 62.3145L24.6086 58.5107H46.3987L37.2151 62.3145ZM14.844 53.0479C15.2979 54.1436 16.1682 55.0148 17.2639 55.4688L24.6086 58.5107H16.6584C14.1888 58.5105 12.1862 56.5087 12.1858 54.0391V46.6309L14.844 53.0479ZM59.2043 54.0391C59.2039 56.5086 57.2023 58.5105 54.7327 58.5107H46.3987L53.7424 55.4688C54.8382 55.0149 55.7094 54.1436 56.1633 53.0479L59.2043 45.7051V54.0391ZM12.1858 46.6309L7.99731 36.5205C7.5435 35.4249 7.54374 34.1933 7.99731 33.0977L12.1858 22.9863V46.6309ZM63.009 33.0977C63.4627 34.1934 63.4629 35.4248 63.009 36.5205L59.2043 45.7051V23.9111L63.009 33.0977ZM42.4084 34.8057C42.4723 35.1856 42.508 35.5756 42.5081 35.9736C42.5081 39.8425 39.371 42.9793 35.5022 42.9795C31.6335 42.9792 28.4973 39.8424 28.4973 35.9736C28.4973 35.5756 28.5322 35.1855 28.5959 34.8057C29.1519 38.1186 32.0313 40.6433 35.5022 40.6436C38.9731 40.6434 41.8525 38.1186 42.4084 34.8057ZM35.5022 26.6328C39.3708 26.633 42.5078 29.7691 42.5081 33.6377C42.5081 34.0356 42.4722 34.4259 42.4084 34.8057C41.8521 31.4932 38.9727 28.9689 35.5022 28.9688C32.0317 28.969 29.1523 31.4932 28.5959 34.8057C28.5322 34.4259 28.4973 34.0356 28.4973 33.6377C28.4976 29.7692 31.6336 26.6331 35.5022 26.6328ZM54.7327 11.4922C57.2025 11.4924 59.2043 13.495 59.2043 15.9648V23.9111L56.1633 16.5693C55.7094 15.4735 54.8383 14.6033 53.7424 14.1494L47.3284 11.4922H54.7327ZM17.2639 14.1494C16.1684 14.6034 15.2979 15.4738 14.844 16.5693L12.1858 22.9863V15.9648C12.1859 13.495 14.1886 11.4924 16.6584 11.4922H23.679L17.2639 14.1494ZM33.7922 7.30273C34.888 6.84902 36.1194 6.8489 37.2151 7.30273L47.3284 11.4922H23.679L33.7922 7.30273Z" fill="#FFFA89"/>
<path d="M82.441 49.4092V20.4047H88.0663V49.4092H82.441ZM98.1788 37.6797V49.4092H93.0322V28.344H97.5404L98.1389 31.7352C99.1363 29.7005 101.331 27.9451 104.921 27.9451C109.31 27.9451 111.424 30.4186 112.302 32.4134C113.579 29.5808 116.451 27.9451 119.962 27.9451C125.308 27.9451 128.699 31.6155 128.699 37.0414V49.4092H123.593V37.1611C123.593 33.73 121.757 31.416 118.406 31.416C115.015 31.416 113.419 34.0492 113.419 37.2808V49.4092H108.312V37.5999C108.312 34.0492 106.796 31.416 103.285 31.416C99.8145 31.416 98.1788 34.3684 98.1788 37.6797ZM144.733 49.8081C141.143 49.8081 138.709 48.2123 137.512 46.2574V57.9469H132.366V28.344H136.874L137.472 31.7751C138.55 29.9399 140.704 27.9451 144.733 27.9451C151.037 27.9451 154.827 32.7725 154.827 38.9165C154.827 45.1802 150.957 49.8081 144.733 49.8081ZM143.457 30.9772C139.387 30.9772 137.512 34.7274 137.512 38.7968C137.512 42.9859 139.308 46.5766 143.537 46.5766C147.646 46.5766 149.521 42.9061 149.521 38.7968C149.521 34.7673 147.646 30.9772 143.457 30.9772ZM170.971 28.2244V32.2539C170.332 32.0943 169.495 31.9746 168.737 31.9746C167.021 31.9746 165.345 32.3735 164.109 33.4906C163.031 34.5678 162.313 36.2036 162.313 38.6771V49.4092H157.167V28.344H161.675L162.273 32.3735C163.271 29.0622 165.944 27.9451 168.617 27.9451C169.534 27.9451 170.372 28.0648 170.971 28.2244ZM193.882 38.8766C193.882 45.5792 189.094 49.8081 182.551 49.8081C176.008 49.8081 171.221 45.6191 171.221 38.8766C171.221 32.2539 176.008 27.9451 182.551 27.9451C189.054 27.9451 193.882 32.2539 193.882 38.8766ZM176.527 38.8766C176.527 43.3051 178.203 47.1351 182.551 47.1351C186.86 47.1351 188.576 43.3051 188.576 38.8766C188.576 34.5279 186.86 30.6181 182.551 30.6181C178.282 30.6181 176.527 34.5678 176.527 38.8766ZM204.827 47.175C207.101 47.175 209.016 46.2574 209.016 43.9035C209.016 41.4699 205.824 40.9911 203.311 40.4725C199.122 39.5548 195.571 38.1585 195.571 34.2487C195.571 29.9 200.079 27.9052 204.508 27.9052C209.455 27.9052 213.883 29.7404 213.883 34.2886V34.6875H208.856C208.856 32.0145 207.141 30.5383 204.428 30.5383C202.433 30.5383 200.598 31.5756 200.598 33.5704C200.598 35.645 202.673 36.2834 205.784 36.9616C209.056 37.6797 214.163 38.4777 214.163 43.2253C214.163 47.9729 209.535 49.8081 204.787 49.8081C199.68 49.8081 195.252 47.933 195.252 42.946V42.4274H200.398C200.398 45.3398 201.875 47.175 204.827 47.175ZM236.629 42.5471C236.629 47.6538 231.842 49.8081 226.735 49.8081C219.953 49.8081 215.524 45.6988 215.524 38.9165C215.524 32.2938 219.793 27.9451 226.416 27.9451C232.839 27.9451 236.908 31.7352 236.908 38.1585C236.908 38.7569 236.868 39.3155 236.829 39.9937H220.83C221.11 43.7838 222.945 47.1351 226.735 47.1351C229.687 47.1351 231.443 45.4994 231.443 42.5471H236.629ZM226.416 30.6181C222.785 30.6181 221.189 33.73 220.87 37.3606H231.842C231.842 33.4906 230.286 30.6181 226.416 30.6181ZM239.466 49.4092V18.8089H244.613V49.4092H239.466ZM260.968 30.9772H254.545V49.4092H249.398V30.9772H246.486V28.344H249.518V25.8306C249.518 20.7239 252.949 18.4099 258.175 18.4099C259.811 18.4099 261.128 18.6493 262.205 18.8887V21.5218C261.367 21.442 260.649 21.4021 259.771 21.4021C256.26 21.4021 254.545 22.599 254.545 26.1099V28.344H260.968V30.9772Z" fill="white"/>
</svg>
