<svg width="16" height="16" viewBox="0 0 16 16" fill="none" xmlns="http://www.w3.org/2000/svg">
<mask id="mask0_37_2447" style="mask-type:alpha" maskUnits="userSpaceOnUse" x="0" y="0" width="16" height="16">
<rect width="16" height="16" fill="#D9D9D9"/>
</mask>
<g mask="url(#mask0_37_2447)">
<path d="M8.00004 14.6666C7.07782 14.6666 6.21115 14.4916 5.40004 14.1416C4.58893 13.7916 3.88337 13.3166 3.28337 12.7166C2.68337 12.1166 2.20837 11.411 1.85837 10.5999C1.50837 9.78881 1.33337 8.92214 1.33337 7.99992C1.33337 7.0777 1.50837 6.21103 1.85837 5.39992C2.20837 4.58881 2.68337 3.88325 3.28337 3.28325C3.88337 2.68325 4.58893 2.20825 5.40004 1.85825C6.21115 1.50825 7.07782 1.33325 8.00004 1.33325C8.92226 1.33325 9.78893 1.50825 10.6 1.85825C11.4112 2.20825 12.1167 2.68325 12.7167 3.28325C13.3167 3.88325 13.7917 4.58881 14.1417 5.39992C14.4917 6.21103 14.6667 7.0777 14.6667 7.99992C14.6667 8.92214 14.4917 9.78881 14.1417 10.5999C13.7917 11.411 13.3167 12.1166 12.7167 12.7166C12.1167 13.3166 11.4112 13.7916 10.6 14.1416C9.78893 14.4916 8.92226 14.6666 8.00004 14.6666ZM7.33337 13.2999V11.9999C6.96671 11.9999 6.65282 11.8694 6.39171 11.6083C6.1306 11.3471 6.00004 11.0333 6.00004 10.6666V9.99992L2.80004 6.79992C2.76671 6.99992 2.73615 7.19992 2.70837 7.39992C2.6806 7.59992 2.66671 7.79992 2.66671 7.99992C2.66671 9.34436 3.10837 10.5221 3.99171 11.5333C4.87504 12.5444 5.98893 13.1333 7.33337 13.2999ZM11.9334 11.5999C12.3889 11.0999 12.7362 10.5416 12.975 9.92492C13.2139 9.30825 13.3334 8.66658 13.3334 7.99992C13.3334 6.91103 13.0306 5.91658 12.425 5.01659C11.8195 4.11659 11.0112 3.46659 10 3.06659V3.33325C10 3.69992 9.86948 4.01381 9.60837 4.27492C9.34726 4.53603 9.03337 4.66658 8.66671 4.66658H7.33337V5.99992C7.33337 6.18881 7.26948 6.34714 7.14171 6.47492C7.01393 6.6027 6.8556 6.66658 6.66671 6.66658H5.33337V7.99992H9.33337C9.52226 7.99992 9.6806 8.06381 9.80837 8.19159C9.93615 8.31936 10 8.4777 10 8.66658V10.6666H10.6667C10.9556 10.6666 11.2167 10.7527 11.45 10.9249C11.6834 11.0971 11.8445 11.3221 11.9334 11.5999Z" fill="#9AB5BC"/>
</g>
</svg>
