<svg width="24" height="25" viewBox="0 0 24 25" fill="none" xmlns="http://www.w3.org/2000/svg">
<g clip-path="url(#clip0_52_7683)">
<mask id="mask0_52_7683" style="mask-type:luminance" maskUnits="userSpaceOnUse" x="0" y="0" width="24" height="25">
<path d="M24 0.5H0V24.5H24V0.5Z" fill="white"/>
</mask>
<g mask="url(#mask0_52_7683)">
<path opacity="0.4" d="M20.5 10.69H17.61C15.24 10.69 13.31 8.76 13.31 6.39V3.5C13.31 2.95 12.86 2.5 12.31 2.5H8.07C4.99 2.5 2.5 4.5 2.5 8.07V16.93C2.5 20.5 4.99 22.5 8.07 22.5H15.93C19.01 22.5 21.5 20.5 21.5 16.93V11.69C21.5 11.14 21.05 10.69 20.5 10.69Z" fill="#024757"/>
<path d="M15.8002 2.71048C15.3902 2.30048 14.6802 2.58048 14.6802 3.15048V6.64048C14.6802 8.10048 15.9202 9.31048 17.4302 9.31048C18.3802 9.32048 19.7002 9.32048 20.8302 9.32048C21.4002 9.32048 21.7002 8.65048 21.3002 8.25048C19.8602 6.80048 17.2802 4.19048 15.8002 2.71048Z" fill="#024757"/>
<path d="M12.2799 15.22C11.9899 14.93 11.5099 14.93 11.2199 15.22L10.4999 15.94V11.75C10.4999 11.34 10.1599 11 9.74994 11C9.33994 11 8.99994 11.34 8.99994 11.75V15.94L8.27994 15.22C7.98994 14.93 7.50994 14.93 7.21994 15.22C6.92994 15.51 6.92994 15.99 7.21994 16.28L9.21994 18.28C9.22994 18.29 9.23994 18.29 9.23994 18.3C9.29994 18.36 9.37994 18.41 9.45994 18.45C9.55994 18.48 9.64994 18.5 9.74994 18.5C9.84994 18.5 9.93994 18.48 10.0299 18.44C10.1199 18.4 10.1999 18.35 10.2799 18.28L12.2799 16.28C12.5699 15.99 12.5699 15.51 12.2799 15.22Z" fill="#024757"/>
</g>
</g>
<defs>
<clipPath id="clip0_52_7683">
<rect width="24" height="24" fill="white" transform="translate(0 0.5)"/>
</clipPath>
</defs>
</svg>
