<svg width="16" height="16" viewBox="0 0 16 16" fill="none" xmlns="http://www.w3.org/2000/svg">
<g clip-path="url(#clip0_52_6837)">
<mask id="mask0_52_6837" style="mask-type:luminance" maskUnits="userSpaceOnUse" x="0" y="0" width="16" height="16">
<path d="M16 0H0V16H16V0Z" fill="white"/>
</mask>
<g mask="url(#mask0_52_6837)">
<path opacity="0.4" d="M13.7467 5.63332C13.0467 2.55332 10.3601 1.16666 8.00007 1.16666C8.00007 1.16666 8.00007 1.16666 7.9934 1.16666C5.64007 1.16666 2.94673 2.54666 2.24673 5.62666C1.46673 9.06666 3.5734 11.98 5.48007 13.8133C6.18673 14.4933 7.0934 14.8333 8.00007 14.8333C8.90673 14.8333 9.8134 14.4933 10.5134 13.8133C12.4201 11.98 14.5267 9.07332 13.7467 5.63332Z" fill="#024757"/>
<path d="M8.00007 8.97346C9.15987 8.97346 10.1001 8.03326 10.1001 6.87346C10.1001 5.71364 9.15987 4.77344 8.00007 4.77344C6.84027 4.77344 5.90007 5.71364 5.90007 6.87346C5.90007 8.03326 6.84027 8.97346 8.00007 8.97346Z" fill="#024757"/>
</g>
</g>
<defs>
<clipPath id="clip0_52_6837">
<rect width="16" height="16" fill="white"/>
</clipPath>
</defs>
</svg>
