<svg width="20" height="21" viewBox="0 0 20 21" fill="none" xmlns="http://www.w3.org/2000/svg">
<g clip-path="url(#clip0_119_2569)">
<mask id="mask0_119_2569" style="mask-type:luminance" maskUnits="userSpaceOnUse" x="0" y="0" width="20" height="21">
<path d="M20 0.409828H0V20.4098H20V0.409828Z" fill="white"/>
</mask>
<g mask="url(#mask0_119_2569)">
<path opacity="0.4" d="M17.0002 14.0188C16.7668 14.6438 16.2752 15.1188 15.6335 15.3355C14.7335 15.6355 13.8085 15.8605 12.8752 16.0188C12.7835 16.0355 12.6918 16.0522 12.6002 16.0605C12.4502 16.0855 12.3002 16.1022 12.1502 16.1188C11.9668 16.1438 11.7752 16.1605 11.5835 16.1772C11.0585 16.2188 10.5418 16.2438 10.0168 16.2438C9.48351 16.2438 8.95018 16.2188 8.42518 16.1688C8.20018 16.1522 7.98351 16.1272 7.76685 16.0938C7.64185 16.0772 7.51685 16.0605 7.40018 16.0438C7.30851 16.0272 7.21685 16.0188 7.12518 16.0022C6.20018 15.8522 5.28351 15.6272 4.39185 15.3272C3.72518 15.1022 3.21685 14.6272 2.99185 14.0188C2.76685 13.4188 2.85018 12.7188 3.20851 12.1188L4.15018 10.5522C4.35018 10.2105 4.53351 9.55216 4.53351 9.15216V7.60215C4.53351 4.57715 6.99185 2.11881 10.0168 2.11881C13.0335 2.11881 15.4918 4.57715 15.4918 7.60215V9.15216C15.4918 9.55216 15.6752 10.2105 15.8835 10.5522L16.8252 12.1188C17.1668 12.7022 17.2335 13.3855 17.0002 14.0188Z" fill="#024757"/>
<path d="M10.0002 9.377C9.65019 9.377 9.36685 9.09366 9.36685 8.74366V6.16035C9.36685 5.81035 9.65019 5.52701 10.0002 5.52701C10.3502 5.52701 10.6335 5.81035 10.6335 6.16035V8.74366C10.6252 9.09366 10.3419 9.377 10.0002 9.377Z" fill="#024757"/>
<path d="M12.3585 17.0848C12.0085 18.0515 11.0835 18.7432 10.0002 18.7432C9.34186 18.7432 8.69186 18.4765 8.23351 18.0015C7.96684 17.7515 7.76684 17.4182 7.65018 17.0765C7.75851 17.0932 7.86684 17.1015 7.98351 17.1182C8.17518 17.1432 8.37519 17.1682 8.57519 17.1848C9.05019 17.2265 9.53353 17.2515 10.0169 17.2515C10.4919 17.2515 10.9669 17.2265 11.4335 17.1848C11.6085 17.1682 11.7835 17.1598 11.9502 17.1348C12.0835 17.1182 12.2169 17.1015 12.3585 17.0848Z" fill="#024757"/>
</g>
</g>
<defs>
<clipPath id="clip0_119_2569">
<rect width="20" height="20" fill="white" transform="translate(0 0.409828)"/>
</clipPath>
</defs>
</svg>
