<svg width="18" height="18" viewBox="0 0 18 18" fill="none" xmlns="http://www.w3.org/2000/svg">
<g clip-path="url(#clip0_37_4432)">
<mask id="mask0_37_4432" style="mask-type:luminance" maskUnits="userSpaceOnUse" x="0" y="0" width="18" height="18">
<path d="M18 0H0V18H18V0Z" fill="white"/>
</mask>
<g mask="url(#mask0_37_4432)">
<path opacity="0.4" d="M7.95747 14.7449C11.6925 14.7449 14.715 11.7224 14.715 7.98743C14.715 4.25242 11.6925 1.22992 7.95747 1.22992C4.22244 1.22992 1.19995 4.25242 1.19995 7.98743C1.19995 11.7224 4.22244 14.7449 7.95747 14.7449Z" fill="#024757"/>
<path d="M16.7325 14.265C16.5375 13.7175 15.99 13.335 15.24 13.2225C14.655 13.125 14.115 13.29 13.7475 13.6575C13.38 14.0325 13.2225 14.58 13.32 15.1725C13.5075 16.29 14.1075 16.62 14.445 16.7175C14.5425 16.7475 14.6625 16.77 14.8125 16.77C15.18 16.77 15.6825 16.62 16.23 16.02C16.74 15.4575 16.9275 14.8125 16.7325 14.265Z" fill="#024757"/>
</g>
</g>
<defs>
<clipPath id="clip0_37_4432">
<rect width="18" height="18" fill="white"/>
</clipPath>
</defs>
</svg>
