<svg width="21" height="21" viewBox="0 0 21 21" fill="none" xmlns="http://www.w3.org/2000/svg">
<g clip-path="url(#clip0_119_2513)">
<mask id="mask0_119_2513" style="mask-type:luminance" maskUnits="userSpaceOnUse" x="0" y="0" width="21" height="21">
<path d="M20.5 0.409828H0.5V20.4098H20.5V0.409828Z" fill="white"/>
</mask>
<g mask="url(#mask0_119_2513)">
<path d="M8.20833 1.46818C6.025 1.46818 4.25 3.24318 4.25 5.42651C4.25 7.60984 5.925 9.3015 8.10833 9.37649C8.175 9.36816 8.24167 9.36816 8.29167 9.37649H8.35C10.4833 9.3015 12.1583 7.56818 12.1667 5.42651C12.1667 3.24318 10.3917 1.46818 8.20833 1.46818Z" fill="white"/>
<path d="M17.3667 5.91816C17.5 7.53483 16.35 8.9515 14.7583 9.14316H14.7167C14.6667 9.14316 14.6167 9.14316 14.575 9.15983C13.7667 9.2015 13.025 8.94316 12.4667 8.46816C13.325 7.7015 13.8167 6.5515 13.7167 5.3015C13.6583 4.6265 13.425 4.00983 13.075 3.48483C13.3917 3.3265 13.7583 3.2265 14.1333 3.19316C15.7667 3.0515 17.225 4.26816 17.3667 5.91816Z" fill="white"/>
<path opacity="0.4" d="M19.0334 13.6265C18.9667 14.4348 18.45 15.1348 17.5834 15.6098C16.75 16.0682 15.7 16.2848 14.6584 16.2598C15.2584 15.7182 15.6084 15.0432 15.675 14.3265C15.7584 13.2932 15.2667 12.3015 14.2834 11.5098C13.725 11.0682 13.075 10.7182 12.3667 10.4598C14.2084 9.92649 16.525 10.2848 17.95 11.4348C18.7167 12.0515 19.1084 12.8265 19.0334 13.6265Z" fill="white"/>
<path opacity="0.4" d="M12.4417 11.5932C10.1167 10.0432 6.32501 10.0432 3.98334 11.5932C2.92501 12.3015 2.34167 13.2598 2.34167 14.2848C2.34167 14.6098 2.40834 14.9182 2.51667 15.2265L2.73334 15.1682C3.15834 15.0432 3.46667 14.7348 3.58334 14.3182L3.80001 13.5265L3.85001 13.3848C4.00834 12.9682 4.40834 12.6932 4.86667 12.6932C5.33334 12.6932 5.70834 12.9765 5.86667 13.3932L6.12501 14.3265C6.23334 14.7432 6.55834 15.0598 6.96667 15.1765L7.93334 15.4515C8.35001 15.6265 8.60001 16.0182 8.60001 16.4765C8.60001 16.9621 8.26766 17.3736 7.80834 17.5182L6.98334 17.7432C6.82501 17.7848 6.68334 17.8682 6.55834 17.9598C7.10001 18.0598 7.65001 18.1348 8.20834 18.1348C9.74166 18.1348 11.275 17.7432 12.4417 16.9598C13.4917 16.2515 14.075 15.3015 14.075 14.2682C14.0667 13.2432 13.4917 12.2932 12.4417 11.5932Z" fill="white"/>
<path d="M7.78337 16.4515C7.78337 16.5098 7.75004 16.6432 7.59171 16.6932L6.77504 16.9182C6.06671 17.1098 5.53337 17.6432 5.34171 18.3515L5.12504 19.1515C5.07504 19.3348 4.93337 19.3515 4.86671 19.3515C4.80004 19.3515 4.65837 19.3348 4.60837 19.1515L4.39171 18.3432C4.20004 17.6432 3.65837 17.1098 2.95837 16.9182L2.15004 16.7015C1.97504 16.6515 1.95837 16.5015 1.95837 16.4432C1.95837 16.3765 1.97504 16.2265 2.15004 16.1765L2.96671 15.9598C3.66671 15.7598 4.20004 15.2265 4.39171 14.5265L4.62504 13.6765C4.68337 13.5348 4.81671 13.5098 4.86671 13.5098C4.91671 13.5098 5.05837 13.5265 5.10837 13.6598L5.34171 14.5182C5.53337 15.2182 6.07504 15.7515 6.77504 15.9515L7.60837 16.1848C7.77504 16.2515 7.78337 16.4015 7.78337 16.4515Z" fill="white"/>
</g>
</g>
<defs>
<clipPath id="clip0_119_2513">
<rect width="20" height="20" fill="white" transform="translate(0.5 0.409828)"/>
</clipPath>
</defs>
</svg>
