<svg width="43" height="43" viewBox="0 0 43 43" fill="none" xmlns="http://www.w3.org/2000/svg">
<g opacity="0.44" clip-path="url(#clip0_37_11486)">
<mask id="mask0_37_11486" style="mask-type:luminance" maskUnits="userSpaceOnUse" x="0" y="0" width="43" height="43">
<path d="M43 0H0V43H43V0Z" fill="white"/>
</mask>
<g mask="url(#mask0_37_11486)">
<path opacity="0.4" d="M36.7295 18.2571H31.5516C27.3053 18.2571 23.8474 14.7991 23.8474 10.5529V5.37498C23.8474 4.38956 23.0412 3.58331 22.0557 3.58331H14.4591C8.94074 3.58331 4.47949 7.16665 4.47949 13.5629V29.4371C4.47949 35.8333 8.94074 39.4166 14.4591 39.4166H28.5416C34.0599 39.4166 38.5212 35.8333 38.5212 29.4371V20.0487C38.5212 19.0633 37.7149 18.2571 36.7295 18.2571Z" fill="#024757"/>
<path d="M28.3094 3.96045C27.5748 3.22586 26.3027 3.72753 26.3027 4.74878V11.0017C26.3027 13.6175 28.5244 15.7854 31.2298 15.7854C32.9319 15.8034 35.2969 15.8034 37.3215 15.8034C38.3427 15.8034 38.8802 14.6029 38.1636 13.8863C35.5836 11.2884 30.9611 6.61211 28.3094 3.96045Z" fill="#024757"/>
<path d="M20.6576 22.3421L17.0743 18.7587C17.0564 18.7408 17.0385 18.7408 17.0385 18.7229C16.931 18.6154 16.7877 18.5258 16.6443 18.4541C16.6264 18.4541 16.6264 18.4541 16.6085 18.4541C16.4652 18.4004 16.3218 18.3825 16.1785 18.3646C16.1248 18.3646 16.0889 18.3646 16.0352 18.3646C15.9277 18.3646 15.8023 18.4004 15.6948 18.4362C15.641 18.4541 15.6052 18.4721 15.5693 18.49C15.426 18.5616 15.2827 18.6333 15.1752 18.7587L11.5918 22.3421C11.0723 22.8616 11.0723 23.7216 11.5918 24.2412C12.1114 24.7608 12.9714 24.7608 13.491 24.2412L14.781 22.9512V30.4583C14.781 31.1929 15.3902 31.8021 16.1248 31.8021C16.8593 31.8021 17.4685 31.1929 17.4685 30.4583V22.9512L18.7584 24.2412C19.0272 24.51 19.3676 24.6354 19.708 24.6354C20.0484 24.6354 20.3888 24.51 20.6576 24.2412C21.1772 23.7216 21.1772 22.8616 20.6576 22.3421Z" fill="#024757"/>
</g>
</g>
<defs>
<clipPath id="clip0_37_11486">
<rect width="43" height="43" fill="white"/>
</clipPath>
</defs>
</svg>
