<svg width="20" height="20" viewBox="0 0 20 20" fill="none" xmlns="http://www.w3.org/2000/svg">
<mask id="mask0_154_3167" style="mask-type:luminance" maskUnits="userSpaceOnUse" x="0" y="0" width="20" height="20">
<path d="M20 0H0V20H20V0Z" fill="white"/>
</mask>
<g mask="url(#mask0_154_3167)">
<path d="M7.70833 1.05835C5.525 1.05835 3.75 2.83335 3.75 5.01668C3.75 7.20002 5.425 8.89167 7.60833 8.96667C7.675 8.95833 7.74167 8.95833 7.79167 8.96667H7.85C9.98333 8.89167 11.6583 7.15835 11.6667 5.01668C11.6667 2.83335 9.89167 1.05835 7.70833 1.05835Z" fill="white"/>
<path d="M16.8667 5.50833C17 7.125 15.85 8.54167 14.2583 8.73333H14.2167C14.1667 8.73333 14.1167 8.73333 14.075 8.75C13.2667 8.79167 12.525 8.53333 11.9667 8.05833C12.825 7.29167 13.3167 6.14167 13.2167 4.89167C13.1583 4.21667 12.925 3.6 12.575 3.075C12.8917 2.91667 13.2583 2.81667 13.6333 2.78333C15.2667 2.64167 16.725 3.85833 16.8667 5.50833Z" fill="white"/>
<path opacity="0.4" d="M18.5333 13.2167C18.4666 14.025 17.95 14.725 17.0833 15.2C16.25 15.6583 15.2 15.875 14.1583 15.85C14.7583 15.3083 15.1083 14.6334 15.175 13.9167C15.2583 12.8833 14.7666 11.8917 13.7833 11.1C13.225 10.6583 12.575 10.3083 11.8666 10.05C13.7083 9.51667 16.025 9.875 17.45 11.025C18.2166 11.6417 18.6083 12.4167 18.5333 13.2167Z" fill="white"/>
<path opacity="0.4" d="M11.9417 11.1833C9.61666 9.63333 5.82501 9.63333 3.48334 11.1833C2.42501 11.8917 1.84167 12.85 1.84167 13.875C1.84167 14.2 1.90834 14.5083 2.01667 14.8167L2.23334 14.7583C2.65834 14.6333 2.96667 14.325 3.08334 13.9083L3.30001 13.1167L3.35001 12.975C3.50834 12.5583 3.90834 12.2833 4.36667 12.2833C4.83334 12.2833 5.20834 12.5667 5.36667 12.9833L5.62501 13.9167C5.73334 14.3333 6.05834 14.65 6.46667 14.7667L7.43334 15.0417C7.85001 15.2167 8.10001 15.6083 8.10001 16.0667C8.10001 16.5522 7.76766 16.9637 7.30834 17.1083L6.48334 17.3333C6.32501 17.375 6.18334 17.4583 6.05834 17.55C6.60001 17.65 7.15001 17.725 7.70834 17.725C9.24166 17.725 10.775 17.3333 11.9417 16.55C12.9917 15.8417 13.575 14.8917 13.575 13.8583C13.5667 12.8333 12.9917 11.8833 11.9417 11.1833Z" fill="white"/>
<path d="M7.28331 16.0417C7.28331 16.1 7.24998 16.2333 7.09165 16.2833L6.27498 16.5083C5.56665 16.7 5.03331 17.2333 4.84165 17.9417L4.62498 18.7417C4.57498 18.925 4.43331 18.9417 4.36665 18.9417C4.29998 18.9417 4.15831 18.925 4.10831 18.7417L3.89165 17.9333C3.69998 17.2333 3.15831 16.7 2.45831 16.5083L1.64998 16.2917C1.47498 16.2417 1.45831 16.0917 1.45831 16.0333C1.45831 15.9667 1.47498 15.8167 1.64998 15.7667L2.46665 15.55C3.16665 15.35 3.69998 14.8167 3.89165 14.1167L4.12498 13.2667C4.18331 13.125 4.31665 13.1 4.36665 13.1C4.41665 13.1 4.55831 13.1167 4.60831 13.25L4.84165 14.1083C5.03331 14.8083 5.57498 15.3417 6.27498 15.5417L7.10831 15.775C7.27498 15.8417 7.28331 15.9917 7.28331 16.0417Z" fill="white"/>
</g>
</svg>
