<svg width="21" height="21" viewBox="0 0 21 21" fill="none" xmlns="http://www.w3.org/2000/svg">
<g clip-path="url(#clip0_119_2556)">
<mask id="mask0_119_2556" style="mask-type:luminance" maskUnits="userSpaceOnUse" x="0" y="0" width="21" height="21">
<path d="M20.5 0.409828H0.5V20.4098H20.5V0.409828Z" fill="white"/>
</mask>
<g mask="url(#mask0_119_2556)">
<path d="M13 5.53455H5.50002C3.65835 5.53455 2.16669 7.02621 2.16669 8.86791V5.8595C2.16669 4.1595 3.54169 2.7845 5.24169 2.7845H9.92502C11.625 2.7845 13 3.83455 13 5.53455Z" fill="white"/>
<path opacity="0.4" d="M15.0667 10.5768C14.65 10.9852 14.45 11.6018 14.6167 12.2268C14.825 13.0018 15.5917 13.4935 16.3917 13.4935H17.1667V14.7018C17.1667 16.5435 15.675 18.0352 13.8334 18.0352H5.50002C3.65835 18.0352 2.16669 16.5435 2.16669 14.7018V8.86849C2.16669 7.02682 3.65835 5.53515 5.50002 5.53515H13.8334C15.6667 5.53515 17.1667 7.03515 17.1667 8.86849V10.0767H16.2667C15.8 10.0767 15.375 10.2602 15.0667 10.5768Z" fill="white"/>
<path d="M18.8335 10.9262V12.6428C18.8335 13.1095 18.4502 13.4928 17.9752 13.4928H16.3669C15.4669 13.4928 14.6419 12.8346 14.5669 11.9346C14.5169 11.4096 14.7169 10.9178 15.0669 10.5762C15.3752 10.2595 15.8002 10.0762 16.2669 10.0762H17.9752C18.4502 10.0762 18.8335 10.4595 18.8335 10.9262Z" fill="white"/>
<path d="M11.3334 10.3268H6.33337C5.99171 10.3268 5.70837 10.0435 5.70837 9.70183C5.70837 9.36016 5.99171 9.07683 6.33337 9.07683H11.3334C11.675 9.07683 11.9584 9.36016 11.9584 9.70183C11.9584 10.0435 11.675 10.3268 11.3334 10.3268Z" fill="white"/>
</g>
</g>
<defs>
<clipPath id="clip0_119_2556">
<rect width="20" height="20" fill="white" transform="translate(0.5 0.409828)"/>
</clipPath>
</defs>
</svg>
