<svg width="70" height="69" viewBox="0 0 70 69" fill="none" xmlns="http://www.w3.org/2000/svg">
<rect width="70" height="68.8197" rx="16.0503" fill="#024757"/>
<path d="M36.6426 60.501C35.59 60.9269 34.412 60.9269 33.3594 60.501L23.9229 56.6807H46.0801L36.6426 60.501ZM14.9355 51.6611C15.3883 52.7289 16.2472 53.5736 17.3223 54.0088L23.9229 56.6807H16.541C14.1252 56.6804 12.1664 54.7214 12.166 52.3057V45.126L14.9355 51.6611ZM57.7891 52.3057C57.7887 54.7214 55.8298 56.6804 53.4141 56.6807H46.0801L52.6807 54.0088C53.7555 53.5735 54.6137 52.7288 55.0664 51.6611L57.7891 45.2373V52.3057ZM61.6543 32.7031C62.1166 33.7942 62.1167 35.0271 61.6543 36.1182L57.7891 45.2373V23.583L61.6543 32.7031ZM12.166 45.126L8.34766 36.1182C7.88518 35.027 7.88524 33.7943 8.34766 32.7031L12.166 23.6943V45.126ZM41.7656 33.9189C41.826 34.2629 41.8594 34.6162 41.8594 34.9766C41.8593 38.4786 38.8935 41.3173 35.2354 41.3174C31.5772 41.3173 28.6114 38.4786 28.6113 34.9766C28.6113 34.6162 28.6438 34.2629 28.7041 33.9189C29.2295 36.9182 31.9532 39.204 35.2354 39.2041C38.5175 39.204 41.2402 36.9181 41.7656 33.9189ZM35.2354 26.5215C38.8934 26.5216 41.8591 29.3604 41.8594 32.8623C41.8594 33.2223 41.8258 33.5753 41.7656 33.9189C41.2396 30.9204 38.517 28.6358 35.2354 28.6357C31.9536 28.6358 29.2301 30.9204 28.7041 33.9189C28.6439 33.5754 28.6113 33.2222 28.6113 32.8623C28.6116 29.3604 31.5773 26.5216 35.2354 26.5215ZM17.3223 14.8125C16.247 15.2478 15.3883 16.0921 14.9355 17.1602L12.166 23.6943V16.4697C12.1661 14.0537 14.125 12.095 16.541 12.0947H24.0361L17.3223 14.8125ZM53.4141 12.0947C55.8301 12.095 57.789 14.0537 57.7891 16.4697V23.583L55.0664 17.1602C54.6138 16.0925 53.7555 15.2479 52.6807 14.8125L45.9668 12.0947H53.4141ZM33.3594 8.32031C34.4121 7.89425 35.5899 7.89428 36.6426 8.32031L45.9668 12.0947H24.0361L33.3594 8.32031Z" fill="#ACE4E0"/>
</svg>
